# xmcd
#
# Track frame offsets: 
#        150
#        13577
#        26427
#        39252
#        50615
#        64480
#        76857
#        89502
#        100340
#        112847
#        126382
#        137697
#        151917
#        163245
#        175905
#        189505
#        201022
#        217477
#        228657
#        242187
#
# Disc length: 3399 seconds
#
# Revision: 1
# Processed by: cddbd v1.5.2PL0 Copyright (c) Steve Scherf et al.
# Submitted via: ExactAudioCopy v0.99pb4
#
DISCID=1b0d4514
DTITLE=Various Artist - The Story of Jazz Vol.3 - The Big Band Period
DYEAR=1900
DGENRE=Jazz
TTITLE0=Fletcher Henderson and His Orchestra - Blazin'
TTITLE1=Don Redman and His Orchestra - Hot And Anxious
TTITLE2=Dorsey Brothers and Their Orchestra - Old Man Harlem
TTITLE3=Earl Hines and His Orchestra - Copenhagen
TTITLE4=Wingy Manone and His Orchestra - Never Had No Lovin'
TTITLE5=Mills Blue Rhythm Band - Congo Caravan
TTITLE6=Artie Shaw and His Orchestra - The Skeleton In The Closet
TTITLE7=Tommy Dorsey and His Orchestra - Jada
TTITLE8=Jimmy  Dorsey and His Orchestra with Louis Armstrong - Dipperm
TTITLE8=outh Blues
TTITLE9=Jimmy Lunceford and His Orchestra - Harlem Shout
TTITLE10=Case Loma Orchestra - Royal Garden Blues
TTITLE11=Fats Waller and His Orchestra - The Sheik Araby
TTITLE12=Andy Kirk and His Twelve Clouds Of Joy - Corky
TTITLE13=Coleman Hawkins and His Orchestra - I Can't Love You More Tha
TTITLE13=n I Do
TTITLE14=Count Basie and His Orchestra - Ain't It The Truth
TTITLE15=Cootie Williams and His Orchestra - Epistrophy
TTITLE16=Paul Baron and His Orchestra - Four In A Bar
TTITLE17=Les Brown and His Orchestra - I Can't Believe That You're In 
TTITLE17=Love With Me
TTITLE18=Duke Ellington and His Orchestra - Jam-A-Ditty
TTITLE19=Woody Herman and His Orchestra - Keen And Peachy
EXTD=
EXTT0=
EXTT1=
EXTT2=
EXTT3=
EXTT4=
EXTT5=
EXTT6=
EXTT7=
EXTT8=
EXTT9=
EXTT10=
EXTT11=
EXTT12=
EXTT13=
EXTT14=
EXTT15=
EXTT16=
EXTT17=
EXTT18=
EXTT19=
PLAYORDER=
